<svg width="56" height="56" viewBox="0 0 56 56" fill="none" xmlns="http://www.w3.org/2000/svg">
<g clip-path="url(#clip0_15_33)" filter="url(#filter0_d_15_33)">
<path d="M22 0.83401C22.2928 1.18985 22.4722 1.62533 22.515 2.08418C22.5578 2.54303 22.462 3.00417 22.24 3.40801C20.5056 6.59243 19.5998 10.1619 19.606 13.788C19.606 25.851 29.44 35.619 41.56 35.619C43.141 35.619 44.68 35.454 46.159 35.139C46.6124 35.0408 47.0846 35.0784 47.5168 35.247C47.949 35.4156 48.3219 35.7077 48.589 36.087C48.871 36.4814 49.0147 36.9578 48.9979 37.4423C48.9811 37.9268 48.8046 38.3922 48.496 38.766C46.1431 41.6563 43.1747 43.9851 39.8075 45.5826C36.4403 47.18 32.759 48.0059 29.032 48C15.202 48 4 36.858 4 23.13C4 12.798 10.342 3.93601 19.372 0.18001C19.8218 -0.0100939 20.3212 -0.049112 20.795 0.0688175C21.2689 0.186747 21.6918 0.455256 22 0.83401ZM18.574 3.93301C15.1018 5.7955 12.1991 8.56394 10.1744 11.9441C8.14968 15.3243 7.0786 19.1898 7.075 23.13C7.075 35.19 16.912 44.958 29.032 44.958C31.9343 44.963 34.8088 44.3924 37.4892 43.2791C40.1695 42.1657 42.6024 40.5319 44.647 38.472C43.636 38.598 42.607 38.661 41.56 38.661C27.73 38.661 16.531 27.519 16.531 13.791C16.531 10.29 17.257 6.95701 18.574 3.93301Z" fill="white"/>
<path d="M36.382 9.444C36.425 9.31408 36.5079 9.20102 36.6188 9.12089C36.7298 9.04076 36.8632 8.99763 37 8.99763C37.1369 8.99763 37.2702 9.04076 37.3812 9.12089C37.4921 9.20102 37.575 9.31408 37.618 9.444L38.779 12.93C39.298 14.484 40.516 15.702 42.07 16.221L45.556 17.382C45.6859 17.425 45.799 17.5079 45.8791 17.6188C45.9592 17.7298 46.0024 17.8631 46.0024 18C46.0024 18.1369 45.9592 18.2702 45.8791 18.3812C45.799 18.4921 45.6859 18.575 45.556 18.618L42.07 19.779C41.3036 20.0343 40.6072 20.4647 40.0359 21.0359C39.4647 21.6072 39.0344 22.3036 38.779 23.07L37.618 26.556C37.575 26.6859 37.4921 26.799 37.3812 26.8791C37.2702 26.9592 37.1369 27.0024 37 27.0024C36.8632 27.0024 36.7298 26.9592 36.6188 26.8791C36.5079 26.799 36.425 26.6859 36.382 26.556L35.221 23.07C34.9657 22.3036 34.5353 21.6072 33.9641 21.0359C33.3929 20.4647 32.6964 20.0343 31.93 19.779L28.444 18.618C28.3141 18.575 28.201 18.4921 28.1209 18.3812C28.0408 18.2702 27.9977 18.1369 27.9977 18C27.9977 17.8631 28.0408 17.7298 28.1209 17.6188C28.201 17.5079 28.3141 17.425 28.444 17.382L31.93 16.221C32.6964 15.9656 33.3929 15.5353 33.9641 14.9641C34.5353 14.3928 34.9657 13.6964 35.221 12.93L36.382 9.444ZM45.589 0.296994C45.6186 0.211573 45.6741 0.137502 45.7478 0.0850788C45.8214 0.0326558 45.9096 0.00448608 46 0.00448608C46.0904 0.00448608 46.1786 0.0326558 46.2522 0.0850788C46.3259 0.137502 46.3814 0.211573 46.411 0.296994L47.185 2.61899C47.53 3.65699 48.343 4.46999 49.381 4.81499L51.703 5.58899C51.7884 5.61861 51.8625 5.6741 51.9149 5.74776C51.9674 5.82142 51.9955 5.90959 51.9955 5.99999C51.9955 6.0904 51.9674 6.17857 51.9149 6.25223C51.8625 6.32588 51.7884 6.38138 51.703 6.411L49.381 7.185C48.8695 7.35516 48.4047 7.64224 48.0235 8.02344C47.6423 8.40464 47.3552 8.86946 47.185 9.381L46.411 11.703C46.3814 11.7884 46.3259 11.8625 46.2522 11.9149C46.1786 11.9673 46.0904 11.9955 46 11.9955C45.9096 11.9955 45.8214 11.9673 45.7478 11.9149C45.6741 11.8625 45.6186 11.7884 45.589 11.703L44.815 9.381C44.6448 8.86946 44.3578 8.40464 43.9766 8.02344C43.5954 7.64224 43.1305 7.35516 42.619 7.185L40.297 6.411C40.2116 6.38138 40.1375 6.32588 40.0851 6.25223C40.0327 6.17857 40.0045 6.0904 40.0045 5.99999C40.0045 5.90959 40.0327 5.82142 40.0851 5.74776C40.1375 5.6741 40.2116 5.61861 40.297 5.58899L42.619 4.81499C43.657 4.46999 44.47 3.65699 44.815 2.61899L45.589 0.299994V0.296994Z" fill="white"/>
</g>
<defs>
<filter id="filter0_d_15_33" x="0" y="0" width="56" height="56" filterUnits="userSpaceOnUse" color-interpolation-filters="sRGB">
<feFlood flood-opacity="0" result="BackgroundImageFix"/>
<feColorMatrix in="SourceAlpha" type="matrix" values="0 0 0 0 0 0 0 0 0 0 0 0 0 0 0 0 0 0 127 0" result="hardAlpha"/>
<feOffset dy="4"/>
<feGaussianBlur stdDeviation="2"/>
<feComposite in2="hardAlpha" operator="out"/>
<feColorMatrix type="matrix" values="0 0 0 0 0 0 0 0 0 0 0 0 0 0 0 0 0 0 0.25 0"/>
<feBlend mode="normal" in2="BackgroundImageFix" result="effect1_dropShadow_15_33"/>
<feBlend mode="normal" in="SourceGraphic" in2="effect1_dropShadow_15_33" result="shape"/>
</filter>
<clipPath id="clip0_15_33">
<rect width="48" height="48" fill="white" transform="translate(4)"/>
</clipPath>
</defs>
</svg>
